<svg xmlns="http://www.w3.org/2000/svg" width="1760" height="1090" viewBox="0 0 1760 1090"><rect width="1760" height="1090" fill="#FFFFFF"/><defs>
  <marker id="one" viewBox="0 0 12 12" refX="10" refY="6" markerWidth="12" markerHeight="12" orient="auto-start-reverse">
    <line x1="7" y1="1" x2="7" y2="11" stroke="#5B6B78" stroke-width="1.6"/>
  </marker>
  <marker id="many" viewBox="0 0 12 12" refX="11" refY="6" markerWidth="12" markerHeight="12" orient="auto-start-reverse">
    <path d="M 1 6 L 11 1 M 1 6 L 11 6 M 1 6 L 11 11" fill="none" stroke="#5B6B78" stroke-width="1.4"/>
  </marker>
  <marker id="zeromany" viewBox="0 0 16 12" refX="15" refY="6" markerWidth="16" markerHeight="12" orient="auto-start-reverse">
    <circle cx="3" cy="6" r="2.4" fill="#FFFFFF" stroke="#5B6B78" stroke-width="1.3"/>
    <path d="M 5 6 L 15 1 M 5 6 L 15 6 M 5 6 L 15 11" fill="none" stroke="#5B6B78" stroke-width="1.4"/>
  </marker>
  <marker id="zeroone" viewBox="0 0 16 12" refX="15" refY="6" markerWidth="16" markerHeight="12" orient="auto-start-reverse">
    <circle cx="4" cy="6" r="2.4" fill="#FFFFFF" stroke="#5B6B78" stroke-width="1.3"/>
    <line x1="11" y1="1" x2="11" y2="11" stroke="#5B6B78" stroke-width="1.6"/>
  </marker>
</defs><text x="60" y="58" font-family="Calibri, Segoe UI, Helvetica, Arial, sans-serif" font-size="24" fill="#2C6E8F" font-weight="bold" text-anchor="start" letter-spacing="4">LISZT</text><text x="60" y="92" font-family="Cambria, Georgia, serif" font-size="27" fill="#1F2D38" font-weight="bold" text-anchor="start">The spine of the data model</text><text x="60" y="118" font-family="Calibri, Segoe UI, Helvetica, Arial, sans-serif" font-size="14" fill="#5B6B78" font-weight="normal" text-anchor="start">Scenario, attack step, evidence row, coverage assessment, the infrastructure shape and the framework references. Bold attributes are keys. The coverage tag is generated, never written.</text><line x1="60" y1="132" x2="1700" y2="132" stroke="#D4D9DE" stroke-width="2"/><rect x="60" y="170" width="300" height="93" rx="6" fill="#FFFFFF" stroke="#2C6E8F" stroke-width="2"/><rect x="60" y="170" width="300" height="30" rx="6" fill="#E7EEF3"/><rect x="60" y="192" width="300" height="8" fill="#E7EEF3"/><line x1="60" y1="200" x2="360" y2="200" stroke="#2C6E8F" stroke-width="1.5"/><text x="72" y="190" font-family="Calibri, Segoe UI, Helvetica, Arial, sans-serif" font-size="13.5" fill="#2C6E8F" font-weight="bold" text-anchor="start" letter-spacing="0.6">Infrastructure Shape</text><text x="72" y="214" font-family="Consolas, Menlo, monospace" font-size="11.5" fill="#1F2D38" font-weight="bold" text-anchor="start">shape_id  (SHAPE-AI)</text><text x="72" y="231" font-family="Consolas, Menlo, monospace" font-size="11.5" fill="#1F2D38" font-weight="normal" text-anchor="start">family</text><text x="72" y="248" font-family="Consolas, Menlo, monospace" font-size="11.5" fill="#1F2D38" font-weight="normal" text-anchor="start">status  catalog|proposed</text><rect x="60" y="290" width="300" height="110" rx="6" fill="#FFFFFF" stroke="#2C6E8F" stroke-width="2"/><rect x="60" y="290" width="300" height="30" rx="6" fill="#E7EEF3"/><rect x="60" y="312" width="300" height="8" fill="#E7EEF3"/><line x1="60" y1="320" x2="360" y2="320" stroke="#2C6E8F" stroke-width="1.5"/><text x="72" y="310" font-family="Calibri, Segoe UI, Helvetica, Arial, sans-serif" font-size="13.5" fill="#2C6E8F" font-weight="bold" text-anchor="start" letter-spacing="0.6">Shape Layer</text><text x="72" y="334" font-family="Consolas, Menlo, monospace" font-size="11.5" fill="#1F2D38" font-weight="bold" text-anchor="start">shape_id  FK</text><text x="72" y="351" font-family="Consolas, Menlo, monospace" font-size="11.5" fill="#1F2D38" font-weight="bold" text-anchor="start">code  L0..L4</text><text x="72" y="368" font-family="Consolas, Menlo, monospace" font-size="11.5" fill="#1F2D38" font-weight="normal" text-anchor="start">canonical string</text><text x="72" y="385" font-family="Consolas, Menlo, monospace" font-size="11.5" fill="#1F2D38" font-weight="normal" text-anchor="start">covers, components, matters</text><rect x="60" y="440" width="300" height="110" rx="6" fill="#FFFFFF" stroke="#2C6E8F" stroke-width="2"/><rect x="60" y="440" width="300" height="30" rx="6" fill="#E7EEF3"/><rect x="60" y="462" width="300" height="8" fill="#E7EEF3"/><line x1="60" y1="470" x2="360" y2="470" stroke="#2C6E8F" stroke-width="1.5"/><text x="72" y="460" font-family="Calibri, Segoe UI, Helvetica, Arial, sans-serif" font-size="13.5" fill="#2C6E8F" font-weight="bold" text-anchor="start" letter-spacing="0.6">Framework Baseline</text><text x="72" y="484" font-family="Consolas, Menlo, monospace" font-size="11.5" fill="#1F2D38" font-weight="bold" text-anchor="start">baseline  char(7)</text><text x="72" y="501" font-family="Consolas, Menlo, monospace" font-size="11.5" fill="#1F2D38" font-weight="normal" text-anchor="start">status  current|superseded</text><text x="72" y="518" font-family="Consolas, Menlo, monospace" font-size="11.5" fill="#1F2D38" font-weight="normal" text-anchor="start">owner</text><text x="72" y="535" font-family="Consolas, Menlo, monospace" font-size="11.5" fill="#1F2D38" font-weight="normal" text-anchor="start">review_due</text><rect x="60" y="590" width="300" height="144" rx="6" fill="#FFFFFF" stroke="#2C6E8F" stroke-width="2"/><rect x="60" y="590" width="300" height="30" rx="6" fill="#E7EEF3"/><rect x="60" y="612" width="300" height="8" fill="#E7EEF3"/><line x1="60" y1="620" x2="360" y2="620" stroke="#2C6E8F" stroke-width="1.5"/><text x="72" y="610" font-family="Calibri, Segoe UI, Helvetica, Arial, sans-serif" font-size="13.5" fill="#2C6E8F" font-weight="bold" text-anchor="start" letter-spacing="0.6">Technique Reference</text><text x="72" y="634" font-family="Consolas, Menlo, monospace" font-size="11.5" fill="#1F2D38" font-weight="bold" text-anchor="start">baseline  FK</text><text x="72" y="651" font-family="Consolas, Menlo, monospace" font-size="11.5" fill="#1F2D38" font-weight="bold" text-anchor="start">framework</text><text x="72" y="668" font-family="Consolas, Menlo, monospace" font-size="11.5" fill="#1F2D38" font-weight="bold" text-anchor="start">technique_id</text><text x="72" y="685" font-family="Consolas, Menlo, monospace" font-size="11.5" fill="#1F2D38" font-weight="normal" text-anchor="start">name</text><text x="72" y="702" font-family="Consolas, Menlo, monospace" font-size="11.5" fill="#1F2D38" font-weight="normal" text-anchor="start">revoked / deprecated</text><text x="72" y="719" font-family="Consolas, Menlo, monospace" font-size="11.5" fill="#1F2D38" font-weight="normal" text-anchor="start">revoked_by</text><rect x="60" y="780" width="300" height="110" rx="6" fill="#FFFFFF" stroke="#2C6E8F" stroke-width="2"/><rect x="60" y="780" width="300" height="30" rx="6" fill="#E7EEF3"/><rect x="60" y="802" width="300" height="8" fill="#E7EEF3"/><line x1="60" y1="810" x2="360" y2="810" stroke="#2C6E8F" stroke-width="1.5"/><text x="72" y="800" font-family="Calibri, Segoe UI, Helvetica, Arial, sans-serif" font-size="13.5" fill="#2C6E8F" font-weight="bold" text-anchor="start" letter-spacing="0.6">Data Component</text><text x="72" y="824" font-family="Consolas, Menlo, monospace" font-size="11.5" fill="#1F2D38" font-weight="bold" text-anchor="start">baseline  FK</text><text x="72" y="841" font-family="Consolas, Menlo, monospace" font-size="11.5" fill="#1F2D38" font-weight="bold" text-anchor="start">dc_id</text><text x="72" y="858" font-family="Consolas, Menlo, monospace" font-size="11.5" fill="#1F2D38" font-weight="normal" text-anchor="start">name</text><text x="72" y="875" font-family="Consolas, Menlo, monospace" font-size="11.5" fill="#1F2D38" font-weight="normal" text-anchor="start">deprecated</text><rect x="470" y="170" width="300" height="212" rx="6" fill="#FFFFFF" stroke="#1F2D38" stroke-width="2"/><rect x="470" y="170" width="300" height="30" rx="6" fill="#FFFFFF"/><rect x="470" y="192" width="300" height="8" fill="#FFFFFF"/><line x1="470" y1="200" x2="770" y2="200" stroke="#1F2D38" stroke-width="1.5"/><text x="482" y="190" font-family="Calibri, Segoe UI, Helvetica, Arial, sans-serif" font-size="13.5" fill="#1F2D38" font-weight="bold" text-anchor="start" letter-spacing="0.6">Scenario</text><text x="482" y="214" font-family="Consolas, Menlo, monospace" font-size="11.5" fill="#1F2D38" font-weight="bold" text-anchor="start">scenario_id  char(3)</text><text x="482" y="231" font-family="Consolas, Menlo, monospace" font-size="11.5" fill="#1F2D38" font-weight="normal" text-anchor="start">slug, title, one_liner</text><text x="482" y="248" font-family="Consolas, Menlo, monospace" font-size="11.5" fill="#1F2D38" font-weight="normal" text-anchor="start">status  draft..retired</text><text x="482" y="265" font-family="Consolas, Menlo, monospace" font-size="11.5" fill="#1F2D38" font-weight="normal" text-anchor="start">mode  attack|failure</text><text x="482" y="282" font-family="Consolas, Menlo, monospace" font-size="11.5" fill="#1F2D38" font-weight="normal" text-anchor="start">priority, evidence_tier</text><text x="482" y="299" font-family="Consolas, Menlo, monospace" font-size="11.5" fill="#1F2D38" font-weight="normal" text-anchor="start">stack  FK -&gt; Infrastructure Shape</text><text x="482" y="316" font-family="Consolas, Menlo, monospace" font-size="11.5" fill="#1F2D38" font-weight="normal" text-anchor="start">objective layer  FK -&gt; Shape Layer</text><text x="482" y="333" font-family="Consolas, Menlo, monospace" font-size="11.5" fill="#1F2D38" font-weight="normal" text-anchor="start">baseline  FK</text><text x="482" y="350" font-family="Consolas, Menlo, monospace" font-size="11.5" fill="#1F2D38" font-weight="normal" text-anchor="start">authored_by, reviewed_by</text><text x="482" y="367" font-family="Consolas, Menlo, monospace" font-size="11.5" fill="#1F2D38" font-weight="normal" text-anchor="start">retired_*, superseded_by</text><rect x="470" y="430" width="300" height="144" rx="6" fill="#FFFFFF" stroke="#1F2D38" stroke-width="2"/><rect x="470" y="430" width="300" height="30" rx="6" fill="#FFFFFF"/><rect x="470" y="452" width="300" height="8" fill="#FFFFFF"/><line x1="470" y1="460" x2="770" y2="460" stroke="#1F2D38" stroke-width="1.5"/><text x="482" y="450" font-family="Calibri, Segoe UI, Helvetica, Arial, sans-serif" font-size="13.5" fill="#1F2D38" font-weight="bold" text-anchor="start" letter-spacing="0.6">Attack Step</text><text x="482" y="474" font-family="Consolas, Menlo, monospace" font-size="11.5" fill="#1F2D38" font-weight="bold" text-anchor="start">step_id  surrogate</text><text x="482" y="491" font-family="Consolas, Menlo, monospace" font-size="11.5" fill="#1F2D38" font-weight="normal" text-anchor="start">scenario_id  FK</text><text x="482" y="508" font-family="Consolas, Menlo, monospace" font-size="11.5" fill="#1F2D38" font-weight="normal" text-anchor="start">position  1..6 (not key)</text><text x="482" y="525" font-family="Consolas, Menlo, monospace" font-size="11.5" fill="#1F2D38" font-weight="normal" text-anchor="start">seam_tag  18 chars</text><text x="482" y="542" font-family="Consolas, Menlo, monospace" font-size="11.5" fill="#1F2D38" font-weight="normal" text-anchor="start">text</text><text x="482" y="559" font-family="Consolas, Menlo, monospace" font-size="11.5" fill="#1F2D38" font-weight="normal" text-anchor="start">control_held</text><rect x="470" y="620" width="300" height="76" rx="6" fill="#FFFFFF" stroke="#1F2D38" stroke-width="2"/><rect x="470" y="620" width="300" height="30" rx="6" fill="#FFFFFF"/><rect x="470" y="642" width="300" height="8" fill="#FFFFFF"/><line x1="470" y1="650" x2="770" y2="650" stroke="#1F2D38" stroke-width="1.5"/><text x="482" y="640" font-family="Calibri, Segoe UI, Helvetica, Arial, sans-serif" font-size="13.5" fill="#1F2D38" font-weight="bold" text-anchor="start" letter-spacing="0.6">Step Technique Mapping</text><text x="482" y="664" font-family="Consolas, Menlo, monospace" font-size="11.5" fill="#1F2D38" font-weight="bold" text-anchor="start">step_id  FK</text><text x="482" y="681" font-family="Consolas, Menlo, monospace" font-size="11.5" fill="#1F2D38" font-weight="normal" text-anchor="start">baseline, framework, technique_id  FK</text><rect x="470" y="730" width="300" height="93" rx="6" fill="#FFFFFF" stroke="#1F2D38" stroke-width="2"/><rect x="470" y="730" width="300" height="30" rx="6" fill="#FFFFFF"/><rect x="470" y="752" width="300" height="8" fill="#FFFFFF"/><line x1="470" y1="760" x2="770" y2="760" stroke="#1F2D38" stroke-width="1.5"/><text x="482" y="750" font-family="Calibri, Segoe UI, Helvetica, Arial, sans-serif" font-size="13.5" fill="#1F2D38" font-weight="bold" text-anchor="start" letter-spacing="0.6">Scenario Framework Mapping</text><text x="482" y="774" font-family="Consolas, Menlo, monospace" font-size="11.5" fill="#1F2D38" font-weight="bold" text-anchor="start">scenario_id  FK</text><text x="482" y="791" font-family="Consolas, Menlo, monospace" font-size="11.5" fill="#1F2D38" font-weight="normal" text-anchor="start">baseline, framework, technique_id  FK</text><text x="482" y="808" font-family="Consolas, Menlo, monospace" font-size="11.5" fill="#1F2D38" font-weight="normal" text-anchor="start">OWASP only, scenario level</text><rect x="470" y="860" width="300" height="76" rx="6" fill="#FFFFFF" stroke="#1F2D38" stroke-width="2"/><rect x="470" y="860" width="300" height="30" rx="6" fill="#FFFFFF"/><rect x="470" y="882" width="300" height="8" fill="#FFFFFF"/><line x1="470" y1="890" x2="770" y2="890" stroke="#1F2D38" stroke-width="1.5"/><text x="482" y="880" font-family="Calibri, Segoe UI, Helvetica, Arial, sans-serif" font-size="13.5" fill="#1F2D38" font-weight="bold" text-anchor="start" letter-spacing="0.6">Evidence Row Data Component</text><text x="482" y="904" font-family="Consolas, Menlo, monospace" font-size="11.5" fill="#1F2D38" font-weight="bold" text-anchor="start">row_id  FK</text><text x="482" y="921" font-family="Consolas, Menlo, monospace" font-size="11.5" fill="#1F2D38" font-weight="normal" text-anchor="start">baseline, dc_id  FK</text><rect x="880" y="430" width="300" height="178" rx="6" fill="#FFFFFF" stroke="#1F2D38" stroke-width="2"/><rect x="880" y="430" width="300" height="30" rx="6" fill="#FFFFFF"/><rect x="880" y="452" width="300" height="8" fill="#FFFFFF"/><line x1="880" y1="460" x2="1180" y2="460" stroke="#1F2D38" stroke-width="1.5"/><text x="892" y="450" font-family="Calibri, Segoe UI, Helvetica, Arial, sans-serif" font-size="13.5" fill="#1F2D38" font-weight="bold" text-anchor="start" letter-spacing="0.6">Evidence Row</text><text x="892" y="474" font-family="Consolas, Menlo, monospace" font-size="11.5" fill="#1F2D38" font-weight="bold" text-anchor="start">row_id  surrogate</text><text x="892" y="491" font-family="Consolas, Menlo, monospace" font-size="11.5" fill="#1F2D38" font-weight="normal" text-anchor="start">scenario_id  FK</text><text x="892" y="508" font-family="Consolas, Menlo, monospace" font-size="11.5" fill="#1F2D38" font-weight="normal" text-anchor="start">kind  attack-step|control</text><text x="892" y="525" font-family="Consolas, Menlo, monospace" font-size="11.5" fill="#1F2D38" font-weight="normal" text-anchor="start">step_id  FK (null for control)</text><text x="892" y="542" font-family="Consolas, Menlo, monospace" font-size="11.5" fill="#1F2D38" font-weight="normal" text-anchor="start">display_position  1..8</text><text x="892" y="559" font-family="Consolas, Menlo, monospace" font-size="11.5" fill="#1F2D38" font-weight="normal" text-anchor="start">signal</text><text x="892" y="576" font-family="Consolas, Menlo, monospace" font-size="11.5" fill="#1F2D38" font-weight="normal" text-anchor="start">emitted_at</text><text x="892" y="593" font-family="Consolas, Menlo, monospace" font-size="11.5" fill="#1F2D38" font-weight="normal" text-anchor="start">detection_opportunity</text><rect x="880" y="760" width="300" height="110" rx="6" fill="#FFFFFF" stroke="#1F2D38" stroke-width="2"/><rect x="880" y="760" width="300" height="30" rx="6" fill="#FFFFFF"/><rect x="880" y="782" width="300" height="8" fill="#FFFFFF"/><line x1="880" y1="790" x2="1180" y2="790" stroke="#1F2D38" stroke-width="1.5"/><text x="892" y="780" font-family="Calibri, Segoe UI, Helvetica, Arial, sans-serif" font-size="13.5" fill="#1F2D38" font-weight="bold" text-anchor="start" letter-spacing="0.6">Assessment Header</text><text x="892" y="804" font-family="Consolas, Menlo, monospace" font-size="11.5" fill="#1F2D38" font-weight="bold" text-anchor="start">scenario_id, org_id  PK</text><text x="892" y="821" font-family="Consolas, Menlo, monospace" font-size="11.5" fill="#1F2D38" font-weight="normal" text-anchor="start">assessed_by</text><text x="892" y="838" font-family="Consolas, Menlo, monospace" font-size="11.5" fill="#1F2D38" font-weight="normal" text-anchor="start">assessed</text><text x="892" y="855" font-family="Consolas, Menlo, monospace" font-size="11.5" fill="#1F2D38" font-weight="normal" text-anchor="start">baseline  FK (optional)</text><rect x="1290" y="170" width="300" height="76" rx="6" fill="#FFFFFF" stroke="#2C6E8F" stroke-width="2"/><rect x="1290" y="170" width="300" height="30" rx="6" fill="#E7EEF3"/><rect x="1290" y="192" width="300" height="8" fill="#E7EEF3"/><line x1="1290" y1="200" x2="1590" y2="200" stroke="#2C6E8F" stroke-width="1.5"/><text x="1302" y="190" font-family="Calibri, Segoe UI, Helvetica, Arial, sans-serif" font-size="13.5" fill="#2C6E8F" font-weight="bold" text-anchor="start" letter-spacing="0.6">Organization</text><text x="1302" y="214" font-family="Consolas, Menlo, monospace" font-size="11.5" fill="#1F2D38" font-weight="bold" text-anchor="start">org_id</text><text x="1302" y="231" font-family="Consolas, Menlo, monospace" font-size="11.5" fill="#1F2D38" font-weight="normal" text-anchor="start">name</text><rect x="1290" y="330" width="300" height="229" rx="6" fill="#FFFFFF" stroke="#1F2D38" stroke-width="2"/><rect x="1290" y="330" width="300" height="30" rx="6" fill="#FFFFFF"/><rect x="1290" y="352" width="300" height="8" fill="#FFFFFF"/><line x1="1290" y1="360" x2="1590" y2="360" stroke="#1F2D38" stroke-width="1.5"/><text x="1302" y="350" font-family="Calibri, Segoe UI, Helvetica, Arial, sans-serif" font-size="13.5" fill="#1F2D38" font-weight="bold" text-anchor="start" letter-spacing="0.6">Coverage Assessment</text><text x="1302" y="374" font-family="Consolas, Menlo, monospace" font-size="11.5" fill="#1F2D38" font-weight="bold" text-anchor="start">assessment_id  surrogate</text><text x="1302" y="391" font-family="Consolas, Menlo, monospace" font-size="11.5" fill="#1F2D38" font-weight="normal" text-anchor="start">row_id  FK</text><text x="1302" y="408" font-family="Consolas, Menlo, monospace" font-size="11.5" fill="#1F2D38" font-weight="normal" text-anchor="start">org_id  FK</text><text x="1302" y="425" font-family="Consolas, Menlo, monospace" font-size="11.5" fill="#1F2D38" font-weight="normal" text-anchor="start">visibility  0..4 | null</text><text x="1302" y="442" font-family="Consolas, Menlo, monospace" font-size="11.5" fill="#1F2D38" font-weight="normal" text-anchor="start">detection  -1..5 | null</text><text x="1302" y="459" font-family="Consolas, Menlo, monospace" font-size="11.5" fill="#1F2D38" font-weight="normal" text-anchor="start">q_* five dimensions</text><text x="1302" y="476" font-family="Consolas, Menlo, monospace" font-size="11.5" fill="#1F2D38" font-weight="normal" text-anchor="start">coverage_tag  GENERATED</text><text x="1302" y="493" font-family="Consolas, Menlo, monospace" font-size="11.5" fill="#1F2D38" font-weight="normal" text-anchor="start">source  (this org's system)</text><text x="1302" y="510" font-family="Consolas, Menlo, monospace" font-size="11.5" fill="#1F2D38" font-weight="normal" text-anchor="start">owner, evidence, backlog_ref</text><text x="1302" y="527" font-family="Consolas, Menlo, monospace" font-size="11.5" fill="#1F2D38" font-weight="normal" text-anchor="start">notes, research_needed</text><text x="1302" y="544" font-family="Consolas, Menlo, monospace" font-size="11.5" fill="#1F2D38" font-weight="normal" text-anchor="start">score_provenance</text><rect x="1290" y="660" width="300" height="110" rx="6" fill="#FFFFFF" stroke="#2F7D57" stroke-width="2"/><rect x="1290" y="660" width="300" height="30" rx="6" fill="#EAF2ED"/><rect x="1290" y="682" width="300" height="8" fill="#EAF2ED"/><line x1="1290" y1="690" x2="1590" y2="690" stroke="#2F7D57" stroke-width="1.5"/><text x="1302" y="680" font-family="Calibri, Segoe UI, Helvetica, Arial, sans-serif" font-size="13.5" fill="#2F7D57" font-weight="bold" text-anchor="start" letter-spacing="0.6">Coverage Tag</text><text x="1302" y="704" font-family="Consolas, Menlo, monospace" font-size="11.5" fill="#1F2D38" font-weight="normal" text-anchor="start">vis == 0            -&gt; Blind</text><text x="1302" y="721" font-family="Consolas, Menlo, monospace" font-size="11.5" fill="#1F2D38" font-weight="normal" text-anchor="start">vis&gt;=1 &amp; det&gt;=1     -&gt; Have</text><text x="1302" y="738" font-family="Consolas, Menlo, monospace" font-size="11.5" fill="#1F2D38" font-weight="normal" text-anchor="start">vis&gt;=1 &amp; det&lt;=0     -&gt; Collectable</text><text x="1302" y="755" font-family="Consolas, Menlo, monospace" font-size="11.5" fill="#1F2D38" font-weight="normal" text-anchor="start">no scores           -&gt; null</text><path d="M 360 216.5 C 409.5 216.5, 420.5 206.0, 470 206.0" fill="none" stroke="#5B6B78" stroke-width="1.4" marker-start="url(#one)" marker-end="url(#zeromany)"/><rect x="353.4" y="195.25" width="123.2" height="15" fill="#FFFFFF" opacity="0.92"/><text x="415.0" y="206.25" font-family="Calibri, Segoe UI, Helvetica, Arial, sans-serif" font-size="11" fill="#5B6B78" font-weight="normal" text-anchor="middle">classified against</text><path d="M 210.0 263 C 210.0 263, 210.0 290, 210.0 290" fill="none" stroke="#5B6B78" stroke-width="1.4" marker-start="url(#one)" marker-end="url(#many)"/><path d="M 360 345.0 C 409.5 345.0, 420.5 276.0, 470 276.0" fill="none" stroke="#5B6B78" stroke-width="1.4" marker-start="url(#one)" marker-end="url(#zeromany)"/><rect x="363.0" y="294.5" width="104.0" height="15" fill="#FFFFFF" opacity="0.92"/><text x="415.0" y="305.5" font-family="Calibri, Segoe UI, Helvetica, Arial, sans-serif" font-size="11" fill="#5B6B78" font-weight="normal" text-anchor="middle">objective layer</text><path d="M 360 495.0 C 409.5 495.0, 420.5 346.0, 470 346.0" fill="none" stroke="#5B6B78" stroke-width="1.4" marker-start="url(#one)" marker-end="url(#zeromany)"/><rect x="369.4" y="404.5" width="91.2" height="15" fill="#FFFFFF" opacity="0.92"/><text x="415.0" y="415.5" font-family="Calibri, Segoe UI, Helvetica, Arial, sans-serif" font-size="11" fill="#5B6B78" font-weight="normal" text-anchor="middle">vocabulary of</text><path d="M 210.0 550 C 210.0 550, 210.0 590, 210.0 590" fill="none" stroke="#5B6B78" stroke-width="1.4" marker-start="url(#one)" marker-end="url(#zeromany)"/><path d="M 210.0 734 C 210.0 734, 210.0 780, 210.0 780" fill="none" stroke="#5B6B78" stroke-width="1.4" marker-start="url(#one)" marker-end="url(#zeromany)"/><rect x="164.4" y="741.0" width="91.2" height="15" fill="#FFFFFF" opacity="0.92"/><text x="210.0" y="752.0" font-family="Calibri, Segoe UI, Helvetica, Arial, sans-serif" font-size="11" fill="#5B6B78" font-weight="normal" text-anchor="middle">same baseline</text><path d="M 620.0 382 C 620.0 382, 620.0 430, 620.0 430" fill="none" stroke="#5B6B78" stroke-width="1.4" marker-start="url(#one)" marker-end="url(#many)"/><rect x="596.8" y="390.0" width="46.400000000000006" height="15" fill="#FFFFFF" opacity="0.92"/><text x="620.0" y="401.0" font-family="Calibri, Segoe UI, Helvetica, Arial, sans-serif" font-size="11" fill="#5B6B78" font-weight="normal" text-anchor="middle">3 to 6</text><path d="M 620.0 574 C 620.0 574, 620.0 620, 620.0 620" fill="none" stroke="#5B6B78" stroke-width="1.4" marker-start="url(#one)" marker-end="url(#zeromany)"/><path d="M 360 662.0 C 409.5 662.0, 420.5 658.0, 470 658.0" fill="none" stroke="#5B6B78" stroke-width="1.4" marker-start="url(#one)" marker-end="url(#zeromany)"/><rect x="385.4" y="644.0" width="59.2" height="15" fill="#FFFFFF" opacity="0.92"/><text x="415.0" y="655.0" font-family="Calibri, Segoe UI, Helvetica, Arial, sans-serif" font-size="11" fill="#5B6B78" font-weight="normal" text-anchor="middle">resolves</text><path d="M 360 662.0 C 409.5 662.0, 420.5 776.5, 470 776.5" fill="none" stroke="#5B6B78" stroke-width="1.4" marker-start="url(#one)" marker-end="url(#zeromany)"/><path d="M 360 835.0 C 409.5 835.0, 420.5 898.0, 470 898.0" fill="none" stroke="#5B6B78" stroke-width="1.4" marker-start="url(#one)" marker-end="url(#zeromany)"/><path d="M 770 276.0 C 819.5 276.0, 830.5 519.0, 880 519.0" fill="none" stroke="#5B6B78" stroke-width="1.4" marker-start="url(#one)" marker-end="url(#many)"/><rect x="801.8" y="381.5" width="46.400000000000006" height="15" fill="#FFFFFF" opacity="0.92"/><text x="825.0" y="392.5" font-family="Calibri, Segoe UI, Helvetica, Arial, sans-serif" font-size="11" fill="#5B6B78" font-weight="normal" text-anchor="middle">3 to 8</text><path d="M 770 502.0 C 819.5 502.0, 830.5 519.0, 880 519.0" fill="none" stroke="#5B6B78" stroke-width="1.4" marker-start="url(#one)" marker-end="url(#one)"/><rect x="785.8" y="494.5" width="78.4" height="15" fill="#FFFFFF" opacity="0.92"/><text x="825.0" y="505.5" font-family="Calibri, Segoe UI, Helvetica, Arial, sans-serif" font-size="11" fill="#5B6B78" font-weight="normal" text-anchor="middle">exactly one</text><path d="M 880 519.0 C 830.5 519.0, 819.5 898.0, 770 898.0" fill="none" stroke="#5B6B78" stroke-width="1.4" marker-start="url(#one)" marker-end="url(#zeromany)"/><rect x="805.0" y="692.5" width="40.0" height="15" fill="#FFFFFF" opacity="0.92"/><text x="825.0" y="703.5" font-family="Calibri, Segoe UI, Helvetica, Arial, sans-serif" font-size="11" fill="#5B6B78" font-weight="normal" text-anchor="middle">cites</text><path d="M 1180 519.0 C 1229.5 519.0, 1240.5 444.5, 1290 444.5" fill="none" stroke="#5B6B78" stroke-width="1.4" marker-start="url(#one)" marker-end="url(#zeromany)"/><rect x="1195.8" y="465.75" width="78.4" height="15" fill="#FFFFFF" opacity="0.92"/><text x="1235.0" y="476.75" font-family="Calibri, Segoe UI, Helvetica, Arial, sans-serif" font-size="11" fill="#5B6B78" font-weight="normal" text-anchor="middle">one per org</text><path d="M 1590 208.0 C 1630 208.0, 1630 444.5, 1590 444.5" fill="none" stroke="#5B6B78" stroke-width="1.4" marker-start="url(#one)" marker-end="url(#zeromany)"/><text x="1636" y="330.25" font-family="Calibri, Segoe UI, Helvetica, Arial, sans-serif" font-size="11" fill="#5B6B78" font-weight="normal" text-anchor="start">assesses</text><path d="M 1290 208.0 C 1240.5 208.0, 1229.5 815.0, 1180 815.0" fill="none" stroke="#5B6B78" stroke-width="1.4" marker-start="url(#one)" marker-end="url(#zeromany)"/><rect x="1215.0" y="495.5" width="40.0" height="15" fill="#FFFFFF" opacity="0.92"/><text x="1235.0" y="506.5" font-family="Calibri, Segoe UI, Helvetica, Arial, sans-serif" font-size="11" fill="#5B6B78" font-weight="normal" text-anchor="middle">signs</text><path d="M 1440.0 559 C 1440.0 559, 1440.0 660, 1440.0 660" fill="none" stroke="#5B6B78" stroke-width="1.4" marker-start="url(#one)" marker-end="url(#one)"/><rect x="1413.6" y="593.5" width="52.800000000000004" height="15" fill="#FFFFFF" opacity="0.92"/><text x="1440.0" y="604.5" font-family="Calibri, Segoe UI, Helvetica, Arial, sans-serif" font-size="11" fill="#5B6B78" font-weight="normal" text-anchor="middle">derived</text><rect x="60" y="1000" width="560" height="54" rx="6" fill="#EFF2F5" stroke="#D4D9DE" stroke-width="1.5"/><text x="74" y="1022" font-family="Calibri, Segoe UI, Helvetica, Arial, sans-serif" font-size="11" fill="#1F2D38" font-weight="bold" text-anchor="start" letter-spacing="1.2">CROW'S FOOT</text><path d="M 180 1018 C 216.0 1018, 224.0 1018, 260 1018" fill="none" stroke="#5B6B78" stroke-width="1.4" marker-start="url(#one)" marker-end="url(#many)"/><text x="270" y="1022" font-family="Calibri, Segoe UI, Helvetica, Arial, sans-serif" font-size="11" fill="#5B6B78" font-weight="normal" text-anchor="start">one to many</text><path d="M 370 1018 C 406.0 1018, 414.0 1018, 450 1018" fill="none" stroke="#5B6B78" stroke-width="1.4" marker-start="url(#one)" marker-end="url(#zeromany)"/><text x="460" y="1022" font-family="Calibri, Segoe UI, Helvetica, Arial, sans-serif" font-size="11" fill="#5B6B78" font-weight="normal" text-anchor="start">one to zero or many</text><path d="M 180 1042 C 216.0 1042, 224.0 1042, 260 1042" fill="none" stroke="#5B6B78" stroke-width="1.4" marker-start="url(#one)" marker-end="url(#one)"/><text x="270" y="1046" font-family="Calibri, Segoe UI, Helvetica, Arial, sans-serif" font-size="11" fill="#5B6B78" font-weight="normal" text-anchor="start">one to exactly one</text><path d="M 370 1042 C 406.0 1042, 414.0 1042, 450 1042" fill="none" stroke="#5B6B78" stroke-width="1.4" marker-start="url(#one)" marker-end="url(#zeroone)"/><text x="460" y="1046" font-family="Calibri, Segoe UI, Helvetica, Arial, sans-serif" font-size="11" fill="#5B6B78" font-weight="normal" text-anchor="start">one to zero or one</text><text x="660" y="1032" font-family="Calibri, Segoe UI, Helvetica, Arial, sans-serif" font-size="12.5" fill="#1F2D38" font-weight="normal" text-anchor="start">The scenario's own scores are the reference organization's assessment and live in Coverage Assessment like everyone else's.</text><text x="660" y="1050" font-family="Calibri, Segoe UI, Helvetica, Arial, sans-serif" font-size="12.5" fill="#B0463B" font-weight="normal" text-anchor="start">An evidence row with no assessment for an organization is unscored for that organization. Unscored is null, never zero.</text></svg>